# xmcd
#
# Track frame offsets:
#	150
#	18848
#	34304
#	51736
#	68581
#	86997
#	102530
#	120892
#	139275
#	153973
#	170195
#	187866
#	206062
#	223375
#	241696
#
# Disc length: 3534 seconds
#
# Revision: 1
# Processed by: cddbd v1.5.1PL0 Copyright (c) Steve Scherf et al.
# Submitted via: audiograbber 1.83.01
#
DISCID=dc0dcc0f
DTITLE=v - CB60322
DYEAR=1900
DGENRE=Karaoke Country
TTITLE0=Toby Keith - Whiskey Girl
TTITLE1=Tracy Byrd - How'd I Wind Up In Jamaca
TTITLE2=Blake Shelton - When Somebody Knows You That Well
TTITLE3=Terri Clarke - Girls Lie Too
TTITLE4=Lonestar - Let's Be Us Again
TTITLE5=Trace Adkins - Rough And Ready
TTITLE6=Martina McBride - How Far, McBride
TTITLE7=Joe Nichols - If Nobody Believed In You
TTITLE8=Lhannon Lawson - Smokin Grass
TTITLE9=Trent Willmon - Beer Man
TTITLE10=Chely Wright - Back of the Bottom Drawer
TTITLE11=Jimmy Wayne - You Are
TTITLE12=Jenkins, The - Blame It On Mama
TTITLE13=Brad Paisley and Allison Krauss - Whiskey Lullabye
TTITLE14=Rachael Proctor - Me and Emily
EXTD=Chartbuster
EXTT0=
EXTT1=
EXTT2=
EXTT3=
EXTT4=
EXTT5=
EXTT6=
EXTT7=
EXTT8=
EXTT9=
EXTT10=
EXTT11=
EXTT12=
EXTT13=
EXTT14=
PLAYORDER=
